<?xml version="1.0" encoding="UTF-8" standalone="no"?><!DOCTYPE svg PUBLIC "-//W3C//DTD SVG 1.1//EN" "http://www.w3.org/Graphics/SVG/1.1/DTD/svg11.dtd"><svg width="100%" height="100%" viewBox="0 0 57 57" version="1.1" xmlns="http://www.w3.org/2000/svg" xmlns:xlink="http://www.w3.org/1999/xlink" xml:space="preserve" xmlns:serif="http://www.serif.com/" style="fill-rule:evenodd;clip-rule:evenodd;stroke-linejoin:round;stroke-miterlimit:1.41421;"><path d="M43.467,0.01c1.208,0.143 1.398,0.382 1.965,0.905l9.903,9.903c1.152,1.246 1.395,2.91 0,4.42l-36.972,36.972c-0.422,0.389 -0.919,0.67 -1.481,0.829l-13.028,3.125c-0.739,0.147 -0.877,0.102 -1.218,0.047c-1.718,-0.272 -2.962,-1.74 -2.55,-3.815l3.125,-13.028c0.156,-0.552 0.433,-1.052 0.829,-1.481l36.972,-36.972c0.631,-0.583 1.07,-0.96 2.455,-0.905Zm-34.384,41.673l-1.73,7.214l7.214,-1.73l34.139,-34.139l-5.484,-5.484c-11.38,11.38 -22.759,22.76 -34.139,34.139Z" style="fill:#06090f;fill-rule:nonzero;"/><path d="M18.074,46.703l-4.418,4.42l-8.297,-8.294l4.418,-4.42c2.766,2.765 5.532,5.529 8.297,8.294Z" style="fill:#06090f;fill-rule:nonzero;"/><path d="M48.361,15.975l-4.42,4.42l-8.413,-8.413l4.42,-4.42c2.804,2.805 5.608,5.609 8.413,8.413Z" style="fill:#06090f;fill-rule:nonzero;"/></svg>